<?xml version="1.0" encoding="UTF-8"?>
<!DOCTYPE svg PUBLIC "-//W3C//DTD SVG 1.1//EN" "http://www.w3.org/Graphics/SVG/1.1/DTD/svg11.dtd">
<svg xmlns="http://www.w3.org/2000/svg" version="1.1" width="1024px" height="1024px" style="shape-rendering:geometricPrecision; text-rendering:geometricPrecision; image-rendering:optimizeQuality; fill-rule:evenodd; clip-rule:evenodd" xmlns:xlink="http://www.w3.org/1999/xlink">
<g><path style="opacity:1" fill="#ffffff" d="M 808.5,260.5 C 806.333,285.876 798.833,310.21 786,333.5C 784.989,334.337 783.822,334.67 782.5,334.5C 782.33,335.822 782.663,336.989 783.5,338C 782.552,338.483 781.552,338.649 780.5,338.5C 781.491,342.082 780.491,345.248 777.5,348C 776.552,348.483 775.552,348.649 774.5,348.5C 774.88,353.11 772.88,355.776 768.5,356.5C 768.33,357.822 768.663,358.989 769.5,360C 766.216,363.405 763.05,366.905 760,370.5C 758.4,371.866 756.567,372.866 754.5,373.5C 753.278,376.857 751.278,379.69 748.5,382C 747.207,382.49 745.873,382.657 744.5,382.5C 744.5,383.833 744.5,385.167 744.5,386.5C 743.167,386.5 741.833,386.5 740.5,386.5C 738.922,390.61 736.256,394.11 732.5,397C 730.655,398.128 728.655,398.628 726.5,398.5C 725.318,403.668 721.985,406.335 716.5,406.5C 716.241,410.068 714.241,411.401 710.5,410.5C 710.244,414.783 708.244,416.117 704.5,414.5C 704.649,415.552 704.483,416.552 704,417.5C 702.989,416.663 701.822,416.33 700.5,416.5C 700.391,420.88 698.391,422.214 694.5,420.5C 694.649,421.552 694.483,422.552 694,423.5C 691.828,424.585 689.828,425.919 688,427.5C 686.989,426.663 685.822,426.33 684.5,426.5C 684.649,427.552 684.483,428.552 684,429.5C 682.989,428.663 681.822,428.33 680.5,428.5C 679.711,431.434 677.711,433.268 674.5,434C 673.128,434.402 671.795,434.902 670.5,435.5C 669.264,434.754 667.93,434.421 666.5,434.5C 666.649,435.552 666.483,436.552 666,437.5C 664.989,436.663 663.822,436.33 662.5,436.5C 662.649,437.552 662.483,438.552 662,439.5C 660.301,438.594 658.467,438.261 656.5,438.5C 656.649,439.552 656.483,440.552 656,441.5C 654.989,440.663 653.822,440.33 652.5,440.5C 652.539,442.359 651.706,443.692 650,444.5C 649.29,443.027 648.124,442.36 646.5,442.5C 646.64,444.124 645.973,445.29 644.5,446C 641.233,447.82 637.9,447.986 634.5,446.5C 634.649,447.552 634.483,448.552 634,449.5C 632.301,448.594 630.467,448.261 628.5,448.5C 628.539,450.359 627.706,451.692 626,452.5C 625.29,451.027 624.124,450.36 622.5,450.5C 622.5,451.5 622.5,452.5 622.5,453.5C 620.94,453.481 619.44,453.148 618,452.5C 616.502,454.559 614.502,455.892 612,456.5C 611.29,455.027 610.124,454.36 608.5,454.5C 608.5,455.5 608.5,456.5 608.5,457.5C 606.94,457.481 605.44,457.148 604,456.5C 602.832,457.509 601.665,458.509 600.5,459.5C 598.591,458.652 596.591,458.318 594.5,458.5C 594.649,459.552 594.483,460.552 594,461.5C 592.301,460.594 590.467,460.261 588.5,460.5C 588.5,461.5 588.5,462.5 588.5,463.5C 586.856,463.286 585.356,463.62 584,464.5C 583.29,463.027 582.124,462.36 580.5,462.5C 580.5,463.5 580.5,464.5 580.5,465.5C 577.794,465.425 575.127,465.092 572.5,464.5C 572.649,465.552 572.483,466.552 572,467.5C 570.989,466.663 569.822,466.33 568.5,466.5C 568.927,470.004 568.927,473.671 568.5,477.5C 573.544,477.727 578.544,477.394 583.5,476.5C 585.873,479.188 587.873,479.021 589.5,476C 593.689,475.664 597.856,475.164 602,474.5C 604.059,475.618 606.226,476.285 608.5,476.5C 608.5,475.5 608.5,474.5 608.5,473.5C 614.555,472.82 620.555,471.82 626.5,470.5C 627.524,471.853 628.857,472.52 630.5,472.5C 630.5,471.5 630.5,470.5 630.5,469.5C 632.792,469.756 634.959,469.423 637,468.5C 637.71,469.973 638.876,470.64 640.5,470.5C 640.5,469.5 640.5,468.5 640.5,467.5C 678.854,459.105 715.021,445.105 749,425.5C 750.011,426.337 751.178,426.67 752.5,426.5C 752.452,423.708 753.785,421.875 756.5,421C 762.519,417.134 768.852,413.968 775.5,411.5C 782.64,412.967 785.974,417.3 785.5,424.5C 784.5,424.5 783.5,424.5 782.5,424.5C 782.786,426.277 783.453,427.944 784.5,429.5C 780.672,449.153 773.505,467.487 763,484.5C 761.89,486.037 760.39,486.703 758.5,486.5C 760.117,490.244 758.783,492.244 754.5,492.5C 754.584,497.432 752.25,500.765 747.5,502.5C 746.269,503.651 746.269,504.817 747.5,506C 736.85,517.325 725.683,527.825 714,537.5C 710.847,536.598 708.847,537.931 708,541.5C 706.989,540.663 705.822,540.33 704.5,540.5C 704.244,544.783 702.244,546.117 698.5,544.5C 698.244,548.783 696.244,550.117 692.5,548.5C 692.649,549.552 692.483,550.552 692,551.5C 690.989,550.663 689.822,550.33 688.5,550.5C 688.649,551.552 688.483,552.552 688,553.5C 686.989,552.663 685.822,552.33 684.5,552.5C 684.649,553.552 684.483,554.552 684,555.5C 682.989,554.663 681.822,554.33 680.5,554.5C 680.649,555.552 680.483,556.552 680,557.5C 678.989,556.663 677.822,556.33 676.5,556.5C 676.649,557.552 676.483,558.552 676,559.5C 674.989,558.663 673.822,558.33 672.5,558.5C 672.649,559.552 672.483,560.552 672,561.5C 670.989,560.663 669.822,560.33 668.5,560.5C 668.911,563.276 668.078,563.943 666,562.5C 664.832,563.509 663.665,564.509 662.5,565.5C 661.264,564.754 659.93,564.421 658.5,564.5C 658.649,565.552 658.483,566.552 658,567.5C 656.989,566.663 655.822,566.33 654.5,566.5C 654.5,567.5 654.5,568.5 654.5,569.5C 652.5,569.167 650.5,568.833 648.5,568.5C 648.5,569.5 648.5,570.5 648.5,571.5C 646.5,571.167 644.5,570.833 642.5,570.5C 642.5,571.5 642.5,572.5 642.5,573.5C 640.095,573.866 637.762,574.533 635.5,575.5C 633.865,574.954 632.199,574.62 630.5,574.5C 630.5,575.5 630.5,576.5 630.5,577.5C 628.94,577.481 627.44,577.148 626,576.5C 624.502,578.559 622.502,579.892 620,580.5C 619.29,579.027 618.124,578.36 616.5,578.5C 616.5,579.5 616.5,580.5 616.5,581.5C 614.94,581.481 613.44,581.148 612,580.5C 608.275,583.915 604.442,584.582 600.5,582.5C 600.5,583.5 600.5,584.5 600.5,585.5C 597.167,585.167 593.833,584.833 590.5,584.5C 590.5,585.5 590.5,586.5 590.5,587.5C 586.973,587.496 583.473,587.163 580,586.5C 575.933,588.884 571.433,590.217 566.5,590.5C 563.692,590.307 561.025,589.64 558.5,588.5C 558.5,589.5 558.5,590.5 558.5,591.5C 554.429,591.234 550.429,591.567 546.5,592.5C 543.079,589.873 539.745,590.04 536.5,593C 528.053,593.198 519.72,594.198 511.5,596C 510.873,597.738 510.54,599.571 510.5,601.5C 510.613,603.641 511.28,605.475 512.5,607C 514.833,607.333 517.167,607.667 519.5,608C 519.998,609.158 520.831,609.991 522,610.5C 523.365,609.544 524.865,608.878 526.5,608.5C 548.68,609.818 570.847,609.818 593,608.5C 594.597,609.885 596.43,610.551 598.5,610.5C 598.5,609.5 598.5,608.5 598.5,607.5C 607.462,607.275 616.296,606.275 625,604.5C 626.626,607.066 628.126,606.899 629.5,604C 637.453,602.538 645.287,600.704 653,598.5C 653.71,599.973 654.876,600.64 656.5,600.5C 656.5,599.5 656.5,598.5 656.5,597.5C 664.101,596.102 671.434,594.102 678.5,591.5C 681.857,590.373 685.191,590.373 688.5,591.5C 688.5,592.5 688.5,593.5 688.5,594.5C 689.978,594.238 691.311,594.571 692.5,595.5C 694,602.182 692.5,608.182 688,613.5C 686.989,614.337 685.822,614.67 684.5,614.5C 684.33,615.822 684.663,616.989 685.5,618C 684.552,618.483 683.552,618.649 682.5,618.5C 683.401,622.241 682.068,624.241 678.5,624.5C 679.072,629.246 677.072,631.913 672.5,632.5C 672.66,634.199 672.494,635.866 672,637.5C 665.167,644.333 658.333,651.167 651.5,658C 649.866,658.494 648.199,658.66 646.5,658.5C 645.776,662.88 643.11,664.88 638.5,664.5C 638.241,668.068 636.241,669.401 632.5,668.5C 632.649,669.552 632.483,670.552 632,671.5C 630.989,670.663 629.822,670.33 628.5,670.5C 628.649,671.552 628.483,672.552 628,673.5C 626.989,672.663 625.822,672.33 624.5,672.5C 624.649,673.552 624.483,674.552 624,675.5C 622.989,674.663 621.822,674.33 620.5,674.5C 620.684,677.321 619.351,678.988 616.5,679.5C 615.264,678.754 613.93,678.421 612.5,678.5C 612.649,679.552 612.483,680.552 612,681.5C 610.989,680.663 609.822,680.33 608.5,680.5C 608.5,681.5 608.5,682.5 608.5,683.5C 606.5,683.167 604.5,682.833 602.5,682.5C 602.719,683.675 602.386,684.675 601.5,685.5C 598.019,687.606 594.353,687.939 590.5,686.5C 590.649,687.552 590.483,688.552 590,689.5C 588.644,688.62 587.144,688.286 585.5,688.5C 585.5,689.5 585.5,690.5 585.5,691.5C 583.139,691.326 580.806,690.993 578.5,690.5C 578.5,691.5 578.5,692.5 578.5,693.5C 575.833,693.167 573.167,692.833 570.5,692.5C 570.5,693.5 570.5,694.5 570.5,695.5C 569.07,695.421 567.736,695.754 566.5,696.5C 565.476,695.147 564.143,694.48 562.5,694.5C 562.5,695.5 562.5,696.5 562.5,697.5C 559.962,697.493 557.462,697.159 555,696.5C 553.393,696.769 552.226,697.603 551.5,699C 548.812,699.392 546.145,699.892 543.5,700.5C 542.259,699.963 541.092,699.296 540,698.5C 538.829,699.34 537.662,700.173 536.5,701C 532.805,701.318 529.138,701.818 525.5,702.5C 523.944,701.453 522.277,700.786 520.5,700.5C 520.5,701.5 520.5,702.5 520.5,703.5C 516.61,703.272 512.776,703.606 509,704.5C 507.7,703.293 506.2,702.626 504.5,702.5C 504.5,703.5 504.5,704.5 504.5,705.5C 485.497,707.619 466.664,710.619 448,714.5C 447.29,713.027 446.124,712.36 444.5,712.5C 444.5,713.5 444.5,714.5 444.5,715.5C 438.239,716.866 432.072,718.532 426,720.5C 425.29,719.027 424.124,718.36 422.5,718.5C 422.5,719.5 422.5,720.5 422.5,721.5C 417.525,722.737 412.691,724.404 408,726.5C 407.29,725.027 406.124,724.36 404.5,724.5C 404.67,725.822 404.337,726.989 403.5,728C 399.492,729.113 395.659,730.613 392,732.5C 391.29,731.027 390.124,730.36 388.5,730.5C 388.649,731.552 388.483,732.552 388,733.5C 386.989,732.663 385.822,732.33 384.5,732.5C 384.719,733.675 384.386,734.675 383.5,735.5C 380.254,737.039 377.088,738.706 374,740.5C 373.29,739.027 372.124,738.36 370.5,738.5C 370.5,739.833 370.5,741.167 370.5,742.5C 359.243,747.213 348.409,752.88 338,759.5C 336.989,758.663 335.822,758.33 334.5,758.5C 334.649,759.552 334.483,760.552 334,761.5C 331.248,764.491 328.082,765.491 324.5,764.5C 324.391,768.88 322.391,770.214 318.5,768.5C 318.762,769.978 318.429,771.311 317.5,772.5C 305.974,780.391 295.474,788.725 286,797.5C 284.817,796.269 283.651,796.269 282.5,797.5C 279.746,800.623 277.079,803.79 274.5,807C 272.655,808.128 270.655,808.628 268.5,808.5C 268.762,809.978 268.429,811.311 267.5,812.5C 266.186,813.313 265.019,814.313 264,815.5C 262.817,814.269 261.651,814.269 260.5,815.5C 259.442,819.076 257.275,821.743 254,823.5C 252.989,822.663 251.822,822.33 250.5,822.5C 250.64,824.124 249.973,825.29 248.5,826C 245.167,826.667 241.833,826.667 238.5,826C 235.32,821.987 231.653,818.487 227.5,815.5C 228.404,814.791 228.737,813.791 228.5,812.5C 227.5,812.5 226.5,812.5 225.5,812.5C 225.335,809.15 225.502,805.817 226,802.5C 239.811,770.404 249.144,737.071 254,702.5C 254.667,688.5 254.667,674.5 254,660.5C 228.628,535.103 272.128,442.936 384.5,384C 410.491,371.672 437.157,361.006 464.5,352C 493.784,343.611 522.95,334.778 552,325.5C 553.44,326.148 554.94,326.481 556.5,326.5C 556.5,325.5 556.5,324.5 556.5,323.5C 565.073,321.143 573.573,318.476 582,315.5C 583.44,316.148 584.94,316.481 586.5,316.5C 586.5,315.5 586.5,314.5 586.5,313.5C 637.227,296.722 684.06,272.722 727,241.5C 728.011,242.337 729.178,242.67 730.5,242.5C 730.238,241.022 730.571,239.689 731.5,238.5C 748.191,226.649 763.858,213.483 778.5,199C 782.265,196.369 786.098,193.869 790,191.5C 795.004,192.163 799.004,194.496 802,198.5C 809.745,218.734 811.911,239.401 808.5,260.5 Z"/></g>
<g><path style="opacity:0.145" fill="#ffffff" d="M 808.5,260.5 C 808.938,261.506 809.604,261.506 810.5,260.5C 804.316,311.036 782.65,353.536 745.5,388C 726.482,405.022 705.815,419.689 683.5,432C 649.213,447.066 613.88,458.733 577.5,467C 575.147,467.713 573.147,468.879 571.5,470.5C 569.403,471.879 569.07,473.545 570.5,475.5C 643.174,472.174 709.841,450.674 770.5,411C 781.093,408.278 786.427,412.278 786.5,423C 781.758,456.311 768.258,485.478 746,510.5C 718.071,540.387 684.571,561.554 645.5,574C 619.844,582.831 593.511,588.665 566.5,591.5C 566.5,591.167 566.5,590.833 566.5,590.5C 571.433,590.217 575.933,588.884 580,586.5C 583.473,587.163 586.973,587.496 590.5,587.5C 590.5,586.5 590.5,585.5 590.5,584.5C 593.833,584.833 597.167,585.167 600.5,585.5C 600.5,584.5 600.5,583.5 600.5,582.5C 604.442,584.582 608.275,583.915 612,580.5C 613.44,581.148 614.94,581.481 616.5,581.5C 616.5,580.5 616.5,579.5 616.5,578.5C 618.124,578.36 619.29,579.027 620,580.5C 622.502,579.892 624.502,578.559 626,576.5C 627.44,577.148 628.94,577.481 630.5,577.5C 630.5,576.5 630.5,575.5 630.5,574.5C 632.199,574.62 633.865,574.954 635.5,575.5C 637.762,574.533 640.095,573.866 642.5,573.5C 642.5,572.5 642.5,571.5 642.5,570.5C 644.5,570.833 646.5,571.167 648.5,571.5C 648.5,570.5 648.5,569.5 648.5,568.5C 650.5,568.833 652.5,569.167 654.5,569.5C 654.5,568.5 654.5,567.5 654.5,566.5C 655.822,566.33 656.989,566.663 658,567.5C 658.483,566.552 658.649,565.552 658.5,564.5C 659.93,564.421 661.264,564.754 662.5,565.5C 663.665,564.509 664.832,563.509 666,562.5C 668.078,563.943 668.911,563.276 668.5,560.5C 669.822,560.33 670.989,560.663 672,561.5C 672.483,560.552 672.649,559.552 672.5,558.5C 673.822,558.33 674.989,558.663 676,559.5C 676.483,558.552 676.649,557.552 676.5,556.5C 677.822,556.33 678.989,556.663 680,557.5C 680.483,556.552 680.649,555.552 680.5,554.5C 681.822,554.33 682.989,554.663 684,555.5C 684.483,554.552 684.649,553.552 684.5,552.5C 685.822,552.33 686.989,552.663 688,553.5C 688.483,552.552 688.649,551.552 688.5,550.5C 689.822,550.33 690.989,550.663 692,551.5C 692.483,550.552 692.649,549.552 692.5,548.5C 696.244,550.117 698.244,548.783 698.5,544.5C 702.244,546.117 704.244,544.783 704.5,540.5C 705.822,540.33 706.989,540.663 708,541.5C 708.847,537.931 710.847,536.598 714,537.5C 725.683,527.825 736.85,517.325 747.5,506C 746.269,504.817 746.269,503.651 747.5,502.5C 752.25,500.765 754.584,497.432 754.5,492.5C 758.783,492.244 760.117,490.244 758.5,486.5C 760.39,486.703 761.89,486.037 763,484.5C 773.505,467.487 780.672,449.153 784.5,429.5C 783.453,427.944 782.786,426.277 782.5,424.5C 783.5,424.5 784.5,424.5 785.5,424.5C 785.974,417.3 782.64,412.967 775.5,411.5C 768.852,413.968 762.519,417.134 756.5,421C 753.785,421.875 752.452,423.708 752.5,426.5C 751.178,426.67 750.011,426.337 749,425.5C 715.021,445.105 678.854,459.105 640.5,467.5C 640.5,468.5 640.5,469.5 640.5,470.5C 638.876,470.64 637.71,469.973 637,468.5C 634.959,469.423 632.792,469.756 630.5,469.5C 630.5,470.5 630.5,471.5 630.5,472.5C 628.857,472.52 627.524,471.853 626.5,470.5C 620.555,471.82 614.555,472.82 608.5,473.5C 608.5,474.5 608.5,475.5 608.5,476.5C 606.226,476.285 604.059,475.618 602,474.5C 597.856,475.164 593.689,475.664 589.5,476C 587.873,479.021 585.873,479.188 583.5,476.5C 578.544,477.394 573.544,477.727 568.5,477.5C 568.927,473.671 568.927,470.004 568.5,466.5C 569.822,466.33 570.989,466.663 572,467.5C 572.483,466.552 572.649,465.552 572.5,464.5C 575.127,465.092 577.794,465.425 580.5,465.5C 580.5,464.5 580.5,463.5 580.5,462.5C 582.124,462.36 583.29,463.027 584,464.5C 585.356,463.62 586.856,463.286 588.5,463.5C 588.5,462.5 588.5,461.5 588.5,460.5C 590.467,460.261 592.301,460.594 594,461.5C 594.483,460.552 594.649,459.552 594.5,458.5C 596.591,458.318 598.591,458.652 600.5,459.5C 601.665,458.509 602.832,457.509 604,456.5C 605.44,457.148 606.94,457.481 608.5,457.5C 608.5,456.5 608.5,455.5 608.5,454.5C 610.124,454.36 611.29,455.027 612,456.5C 614.502,455.892 616.502,454.559 618,452.5C 619.44,453.148 620.94,453.481 622.5,453.5C 622.5,452.5 622.5,451.5 622.5,450.5C 624.124,450.36 625.29,451.027 626,452.5C 627.706,451.692 628.539,450.359 628.5,448.5C 630.467,448.261 632.301,448.594 634,449.5C 634.483,448.552 634.649,447.552 634.5,446.5C 637.9,447.986 641.233,447.82 644.5,446C 645.973,445.29 646.64,444.124 646.5,442.5C 648.124,442.36 649.29,443.027 650,444.5C 651.706,443.692 652.539,442.359 652.5,440.5C 653.822,440.33 654.989,440.663 656,441.5C 656.483,440.552 656.649,439.552 656.5,438.5C 658.467,438.261 660.301,438.594 662,439.5C 662.483,438.552 662.649,437.552 662.5,436.5C 663.822,436.33 664.989,436.663 666,437.5C 666.483,436.552 666.649,435.552 666.5,434.5C 667.93,434.421 669.264,434.754 670.5,435.5C 671.795,434.902 673.128,434.402 674.5,434C 677.711,433.268 679.711,431.434 680.5,428.5C 681.822,428.33 682.989,428.663 684,429.5C 684.483,428.552 684.649,427.552 684.5,426.5C 685.822,426.33 686.989,426.663 688,427.5C 689.828,425.919 691.828,424.585 694,423.5C 694.483,422.552 694.649,421.552 694.5,420.5C 698.391,422.214 700.391,420.88 700.5,416.5C 701.822,416.33 702.989,416.663 704,417.5C 704.483,416.552 704.649,415.552 704.5,414.5C 708.244,416.117 710.244,414.783 710.5,410.5C 714.241,411.401 716.241,410.068 716.5,406.5C 721.985,406.335 725.318,403.668 726.5,398.5C 728.655,398.628 730.655,398.128 732.5,397C 736.256,394.11 738.922,390.61 740.5,386.5C 741.833,386.5 743.167,386.5 744.5,386.5C 744.5,385.167 744.5,383.833 744.5,382.5C 745.873,382.657 747.207,382.49 748.5,382C 751.278,379.69 753.278,376.857 754.5,373.5C 756.567,372.866 758.4,371.866 760,370.5C 763.05,366.905 766.216,363.405 769.5,360C 768.663,358.989 768.33,357.822 768.5,356.5C 772.88,355.776 774.88,353.11 774.5,348.5C 775.552,348.649 776.552,348.483 777.5,348C 780.491,345.248 781.491,342.082 780.5,338.5C 781.552,338.649 782.552,338.483 783.5,338C 782.663,336.989 782.33,335.822 782.5,334.5C 783.822,334.67 784.989,334.337 786,333.5C 798.833,310.21 806.333,285.876 808.5,260.5 Z"/></g>
<g><path style="opacity:0.412" fill="#ffffff" d="M 810.5,260.5 C 809.604,261.506 808.938,261.506 808.5,260.5C 811.911,239.401 809.745,218.734 802,198.5C 799.004,194.496 795.004,192.163 790,191.5C 786.098,193.869 782.265,196.369 778.5,199C 763.858,213.483 748.191,226.649 731.5,238.5C 730.571,239.689 730.238,241.022 730.5,242.5C 729.178,242.67 728.011,242.337 727,241.5C 684.06,272.722 637.227,296.722 586.5,313.5C 586.5,314.5 586.5,315.5 586.5,316.5C 584.94,316.481 583.44,316.148 582,315.5C 573.573,318.476 565.073,321.143 556.5,323.5C 556.5,324.5 556.5,325.5 556.5,326.5C 554.94,326.481 553.44,326.148 552,325.5C 522.95,334.778 493.784,343.611 464.5,352C 437.157,361.006 410.491,371.672 384.5,384C 272.128,442.936 228.628,535.103 254,660.5C 254.667,674.5 254.667,688.5 254,702.5C 249.144,737.071 239.811,770.404 226,802.5C 225.502,805.817 225.335,809.15 225.5,812.5C 226.5,812.5 227.5,812.5 228.5,812.5C 228.737,813.791 228.404,814.791 227.5,815.5C 227.631,814.761 227.464,814.094 227,813.5C 226.722,814.416 226.222,815.082 225.5,815.5C 224.35,810.684 224.184,805.684 225,800.5C 237.265,771.208 246.265,740.874 252,709.5C 253.424,694.524 253.757,679.524 253,664.5C 226.095,521.781 279.595,423.281 413.5,369C 429.756,362.803 446.09,356.803 462.5,351C 508.588,337.919 554.254,323.585 599.5,308C 654.104,287.376 704.104,259.043 749.5,223C 761.538,211.96 773.871,201.293 786.5,191C 793.981,189.822 799.814,192.322 804,198.5C 810.877,218.643 813.044,239.309 810.5,260.5 Z"/></g>
<g><path style="opacity:0.008" fill="#ffffff" d="M 571.5,470.5 C 570.825,472.283 570.492,473.95 570.5,475.5C 569.07,473.545 569.403,471.879 571.5,470.5 Z"/></g>
<g><path style="opacity:0.142" fill="#ffffff" d="M 566.5,590.5 C 566.5,590.833 566.5,591.167 566.5,591.5C 548.805,593.119 531.138,594.952 513.5,597C 510.582,600.472 510.915,603.472 514.5,606C 569.207,612.285 622.874,607.452 675.5,591.5C 676.5,591.5 677.5,591.5 678.5,591.5C 671.434,594.102 664.101,596.102 656.5,597.5C 656.5,598.5 656.5,599.5 656.5,600.5C 654.876,600.64 653.71,599.973 653,598.5C 645.287,600.704 637.453,602.538 629.5,604C 628.126,606.899 626.626,607.066 625,604.5C 616.296,606.275 607.462,607.275 598.5,607.5C 598.5,608.5 598.5,609.5 598.5,610.5C 596.43,610.551 594.597,609.885 593,608.5C 570.847,609.818 548.68,609.818 526.5,608.5C 524.865,608.878 523.365,609.544 522,610.5C 520.831,609.991 519.998,609.158 519.5,608C 517.167,607.667 514.833,607.333 512.5,607C 511.28,605.475 510.613,603.641 510.5,601.5C 510.54,599.571 510.873,597.738 511.5,596C 519.72,594.198 528.053,593.198 536.5,593C 539.745,590.04 543.079,589.873 546.5,592.5C 550.429,591.567 554.429,591.234 558.5,591.5C 558.5,590.5 558.5,589.5 558.5,588.5C 561.025,589.64 563.692,590.307 566.5,590.5 Z"/></g>
<g><path style="opacity:0.024" fill="#ffffff" d="M 225.5,815.5 C 226.222,815.082 226.722,814.416 227,813.5C 227.464,814.094 227.631,814.761 227.5,815.5C 231.653,818.487 235.32,821.987 238.5,826C 241.833,826.667 245.167,826.667 248.5,826C 249.973,825.29 250.64,824.124 250.5,822.5C 251.822,822.33 252.989,822.663 254,823.5C 257.275,821.743 259.442,819.076 260.5,815.5C 261.651,814.269 262.817,814.269 264,815.5C 265.019,814.313 266.186,813.313 267.5,812.5C 268.429,811.311 268.762,809.978 268.5,808.5C 270.655,808.628 272.655,808.128 274.5,807C 277.079,803.79 279.746,800.623 282.5,797.5C 283.651,796.269 284.817,796.269 286,797.5C 295.474,788.725 305.974,780.391 317.5,772.5C 318.429,771.311 318.762,769.978 318.5,768.5C 322.391,770.214 324.391,768.88 324.5,764.5C 328.082,765.491 331.248,764.491 334,761.5C 334.483,760.552 334.649,759.552 334.5,758.5C 335.822,758.33 336.989,758.663 338,759.5C 348.409,752.88 359.243,747.213 370.5,742.5C 370.5,741.167 370.5,739.833 370.5,738.5C 372.124,738.36 373.29,739.027 374,740.5C 377.088,738.706 380.254,737.039 383.5,735.5C 384.386,734.675 384.719,733.675 384.5,732.5C 385.822,732.33 386.989,732.663 388,733.5C 388.483,732.552 388.649,731.552 388.5,730.5C 390.124,730.36 391.29,731.027 392,732.5C 395.659,730.613 399.492,729.113 403.5,728C 404.337,726.989 404.67,725.822 404.5,724.5C 406.124,724.36 407.29,725.027 408,726.5C 412.691,724.404 417.525,722.737 422.5,721.5C 422.5,720.5 422.5,719.5 422.5,718.5C 424.124,718.36 425.29,719.027 426,720.5C 432.072,718.532 438.239,716.866 444.5,715.5C 444.5,714.5 444.5,713.5 444.5,712.5C 446.124,712.36 447.29,713.027 448,714.5C 466.664,710.619 485.497,707.619 504.5,705.5C 504.5,704.5 504.5,703.5 504.5,702.5C 506.2,702.626 507.7,703.293 509,704.5C 512.776,703.606 516.61,703.272 520.5,703.5C 520.5,702.5 520.5,701.5 520.5,700.5C 522.277,700.786 523.944,701.453 525.5,702.5C 529.138,701.818 532.805,701.318 536.5,701C 537.662,700.173 538.829,699.34 540,698.5C 541.092,699.296 542.259,699.963 543.5,700.5C 546.145,699.892 548.812,699.392 551.5,699C 552.226,697.603 553.393,696.769 555,696.5C 557.462,697.159 559.962,697.493 562.5,697.5C 562.5,696.5 562.5,695.5 562.5,694.5C 564.143,694.48 565.476,695.147 566.5,696.5C 567.736,695.754 569.07,695.421 570.5,695.5C 570.5,694.5 570.5,693.5 570.5,692.5C 573.167,692.833 575.833,693.167 578.5,693.5C 578.5,692.5 578.5,691.5 578.5,690.5C 580.806,690.993 583.139,691.326 585.5,691.5C 585.5,690.5 585.5,689.5 585.5,688.5C 587.144,688.286 588.644,688.62 590,689.5C 590.483,688.552 590.649,687.552 590.5,686.5C 594.353,687.939 598.019,687.606 601.5,685.5C 602.386,684.675 602.719,683.675 602.5,682.5C 604.5,682.833 606.5,683.167 608.5,683.5C 608.5,682.5 608.5,681.5 608.5,680.5C 609.822,680.33 610.989,680.663 612,681.5C 612.483,680.552 612.649,679.552 612.5,678.5C 613.93,678.421 615.264,678.754 616.5,679.5C 619.351,678.988 620.684,677.321 620.5,674.5C 621.822,674.33 622.989,674.663 624,675.5C 624.483,674.552 624.649,673.552 624.5,672.5C 625.822,672.33 626.989,672.663 628,673.5C 628.483,672.552 628.649,671.552 628.5,670.5C 629.822,670.33 630.989,670.663 632,671.5C 632.483,670.552 632.649,669.552 632.5,668.5C 636.241,669.401 638.241,668.068 638.5,664.5C 643.11,664.88 645.776,662.88 646.5,658.5C 648.199,658.66 649.866,658.494 651.5,658C 658.333,651.167 665.167,644.333 672,637.5C 672.494,635.866 672.66,634.199 672.5,632.5C 677.072,631.913 679.072,629.246 678.5,624.5C 682.068,624.241 683.401,622.241 682.5,618.5C 683.552,618.649 684.552,618.483 685.5,618C 684.663,616.989 684.33,615.822 684.5,614.5C 685.822,614.67 686.989,614.337 688,613.5C 692.5,608.182 694,602.182 692.5,595.5C 691.311,594.571 689.978,594.238 688.5,594.5C 688.5,593.5 688.5,592.5 688.5,591.5C 685.191,590.373 681.857,590.373 678.5,591.5C 677.5,591.5 676.5,591.5 675.5,591.5C 682,588.355 688.166,589.021 694,593.5C 694.667,597.5 694.667,601.5 694,605.5C 674.074,645.859 642.908,673.359 600.5,688C 589.167,691.333 577.833,694.667 566.5,698C 527.721,703.014 489.054,708.68 450.5,715C 396.993,728.254 348.326,751.254 304.5,784C 287.791,798.378 270.791,812.378 253.5,826C 240.834,830.983 231.501,827.483 225.5,815.5 Z"/></g>
</svg>
