<?xml version="1.0" encoding="utf-8"?>
<!-- Generator: Adobe Illustrator 23.0.3, SVG Export Plug-In . SVG Version: 6.00 Build 0)  -->
<svg version="1.1" id="Layer_1" xmlns="http://www.w3.org/2000/svg" xmlns:xlink="http://www.w3.org/1999/xlink" x="0px" y="0px"
	 viewBox="0 0 100 100" style="enable-background:new 0 0 100 100;" xml:space="preserve">
<style type="text/css">
	.st0{fill:#DDDDDD;}
	.st1{fill:#B64240;}
</style>
<g>
	<polygon class="st0" points="0.9,22.8 27,34.1 28.8,38.1 6.7,30.5 	"/>
	<polygon class="st0" points="11.2,33.4 29.6,39.9 30.9,43 15.8,38.5 	"/>
	<polygon class="st0" points="31.5,44.4 19.2,40.8 22.4,44.4 32.8,47.4 	"/>
	<polygon class="st0" points="24.6,46.2 33.3,48.5 34.5,51.1 28.1,49.8 	"/>
	<polygon class="st0" points="76,46.2 67.2,48.5 66.1,51.1 72.5,49.8 	"/>
	<polygon class="st0" points="99.7,22.8 73.6,34.1 71.8,38.1 93.9,30.5 	"/>
	<polygon class="st0" points="89.4,33.4 71.1,39.9 69.7,43 84.8,38.5 	"/>
	<polygon class="st0" points="69,44.4 81.4,40.8 78.2,44.4 67.8,47.4 	"/>
	<polygon class="st0" points="28.5,34.3 36.9,53.6 39.2,55 33.5,36.8 	"/>
	<polygon class="st1" points="23.6,52.7 30.1,53.1 40.8,63.9 38.2,67.3 	"/>
	<polygon class="st1" points="35.5,35 50.4,20 65.2,35 62.3,38.1 50.3,26.1 38.5,38.1 	"/>
	<polygon class="st0" points="72.2,34.3 63.8,53.6 61.5,55 67.2,36.8 	"/>
	<polygon class="st1" points="77.1,52.7 70.6,53.1 60,63.9 62.6,67.3 	"/>
	<path class="st0" d="M48.4,47v-0.8c0-0.5-1.1-1.1-1.1-1.1l-0.8,0l0.1-0.1l3.8-2.5l0.4-0.1l1-0.4c0.8-0.4,2-0.4,2-0.4
		c2.4,0.1,2.4,2.1,2.4,2.1c-1.6-1.5-3.9,2-3.9,2V47l0,1.1l1.6,2.6c0,0,4.3,3,4.8-3.2l0-1.7l7.1-8.3l-7.5,23.2l-1.8-4.4
		c0,0-2.9,0.5-3.7,2.5c0,0-1.6,3.2,2.1,5.1l1.2-1.6l6,8.2l-3.1,4.2l-3.4-7.7l-0.6,1.7l2.2,7.2l-3.8,3l0-9.1l-1.6,0.9v7.1l-1.5,2.1
		l-1.5-2.1v-7.1l-1.6-0.9l0,9.1l-3.8-3l2.2-7.2L45,66.9l-3.4,7.7l-3.1-4.2l6-8.2l1.2,1.6c3.7-1.9,2.1-5.1,2.1-5.1
		c-0.8-2-3.7-2.5-3.7-2.5l-1.8,4.4l-7.5-23.2l7.1,8.3l0,1.7c0.4,6.2,4.8,3.2,4.8,3.2l1.6-2.6V47z"/>
</g>
</svg>
